<?xml version="1.0" standalone="no"?>
<!DOCTYPE svg PUBLIC "-//W3C//DTD SVG 1.1//EN" "http://www.w3.org/Graphics/SVG/1.1/DTD/svg11.dtd" >
<svg xmlns="http://www.w3.org/2000/svg">
<metadata>
This is a custom SVG webfont generated by Font Squirrel.
Copyright   : Copyright 19901993 Bitstream Inc  All rights reserved
</metadata>
<defs>
<font id="LubalGraphXLtBTExtraLight" horiz-adv-x="1157" >
<font-face units-per-em="2048" ascent="1638" descent="-410" />
<missing-glyph horiz-adv-x="578" />
<glyph unicode=" "  horiz-adv-x="578" />
<glyph unicode="&#x09;" horiz-adv-x="578" />
<glyph unicode="&#xa0;" horiz-adv-x="578" />
<glyph unicode="!" horiz-adv-x="578" d="M254 0v178h72v-178h-72zM254 356v1100h72v-1100h-72z" />
<glyph unicode="&#x22;" horiz-adv-x="530" d="M102 881v553h70v-553h-70zM358 881v553h70v-553h-70z" />
<glyph unicode="#" horiz-adv-x="1575" d="M143 506l23 74h342l106 290h-372l22 74h375l180 508h96l-180 -508h275l180 508h94l-178 -508h326l-23 -74h-332l-102 -290h356l-22 -74h-359l-178 -504h-96l180 504h-276l-181 -504h-94l178 504h-340zM608 580h273l100 290h-272z" />
<glyph unicode="$" d="M158 0v383h59q11 -155 100.5 -234t253.5 -79q165 0 261 86.5t96 234.5q0 133 -78 212t-272 134q-14 4 -39 11q-206 58 -271 122q-41 42 -63.5 99t-22.5 121q0 145 94 239.5t259 114.5v213h71l1 -213q103 -3 178.5 -42t125.5 -116v111h62v-301h-62q-24 138 -107.5 210 t-219.5 72q-153 0 -239.5 -77.5t-86.5 -215.5q0 -52 15.5 -92.5t48.5 -70.5q64 -62 248 -110q82 -22 124 -36q152 -49 229.5 -143t77.5 -230q0 -172 -105.5 -280t-289.5 -123v-242h-71l-1 242q-106 10 -184 47.5t-133 106.5v-154h-59z" />
<glyph unicode="%" horiz-adv-x="1796" d="M90 1126q0 72 27.5 137.5t79.5 116.5q51 51 115.5 78t136.5 27t137.5 -27t115.5 -78q52 -51 79.5 -116.5t27.5 -137.5t-27.5 -137t-79.5 -117q-50 -50 -115.5 -77t-137.5 -27t-136.5 27t-115.5 77q-52 52 -79.5 117.5t-27.5 136.5zM154 1126q0 -122 85.5 -207t209.5 -85 t209 84.5t85 207.5q0 125 -85 210t-209 85q-123 0 -209 -86t-86 -209zM471 -29l780 1514h68l-778 -1514h-70zM987 330q0 72 27 137.5t78 116.5q50 50 115.5 77t138.5 27q72 0 137.5 -27t115.5 -77q51 -51 78 -116.5t27 -137.5q0 -73 -26.5 -138t-78.5 -116 q-50 -51 -115.5 -78t-137.5 -27q-73 0 -138.5 27t-115.5 78q-51 50 -78 115.5t-27 138.5zM1053 330q0 -123 85 -208t208 -85q122 0 207 85t85 208t-85 208t-207 85q-123 0 -208 -85.5t-85 -207.5z" />
<glyph unicode="&#x26;" horiz-adv-x="1421" d="M78 381q0 139 84.5 244.5t257.5 181.5q-135 105 -184.5 183t-49.5 175q0 141 96.5 230.5t249.5 89.5q148 0 242 -88t94 -226q0 -128 -81 -219t-252 -153l399 -367l221 578h252v-64h-199l-217 -563l400 -358l-50 -60l-380 344q-73 -164 -191 -251t-268 -87 q-187 0 -305.5 115.5t-118.5 294.5zM154 377q0 -150 96 -241t254 -91q132 0 238 81t169 230l-442 404q-162 -73 -238.5 -166.5t-76.5 -216.5zM252 1163q0 -81 55.5 -159.5t173.5 -163.5q181 73 250.5 147t69.5 187q0 116 -75.5 186t-203.5 70q-114 0 -192 -77.5t-78 -189.5z " />
<glyph unicode="'" horiz-adv-x="274" d="M102 881v553h70v-553h-70z" />
<glyph unicode="(" horiz-adv-x="653" d="M82 514q0 304 143.5 555t411.5 416v-62q-233 -163 -357 -396t-124 -509t124 -510t357 -395v-62q-267 163 -411 413t-144 550z" />
<glyph unicode=")" horiz-adv-x="653" d="M18 -387q234 163 358 396.5t124 508.5q0 276 -124.5 510t-357.5 395v62q267 -162 411 -413t144 -552q0 -303 -143 -553.5t-412 -415.5v62z" />
<glyph unicode="*" d="M244 1159v58h280l-141 237l53 33l139 -244l146 242l49 -31l-139 -237h278v-58h-282l143 -246l-53 -28l-142 241l-141 -237l-51 29l143 241h-282z" />
<glyph unicode="+" horiz-adv-x="1706" d="M254 580v61h569v580h62v-580h567v-61h-567v-580h-62v580h-569z" />
<glyph unicode="," horiz-adv-x="578" d="M152 -147l124 325h72l-125 -325h-71z" />
<glyph unicode="-" horiz-adv-x="645" d="M94 500v94h451v-94h-451z" />
<glyph unicode="." horiz-adv-x="578" d="M254 0v178h72v-178h-72z" />
<glyph unicode="/" horiz-adv-x="569" d="M-51 -190l551 1675h75l-550 -1675h-76z" />
<glyph unicode="0" d="M86 512v432q0 140 20 213t66 133q73 96 177 146.5t229 50.5q131 0 237.5 -54.5t177.5 -158.5q41 -59 59.5 -134.5t18.5 -187.5v-446q0 -119 -19 -197t-61 -135q-69 -97 -177 -150t-236 -53q-126 0 -229.5 50t-178.5 147q-44 56 -64 136.5t-20 207.5zM160 500 q0 -110 16.5 -177t54.5 -114q66 -83 154 -125.5t193 -42.5q197 0 308 120t111 335v469q0 212 -112 333t-307 121q-106 0 -195.5 -43t-149.5 -123q-39 -52 -56 -113.5t-17 -181.5v-458z" />
<glyph unicode="1" d="M233 1389v67h408v-1397h184v-59h-465v59h207v1330h-334z" />
<glyph unicode="2" d="M125 0v76l524 514l21 21q284 277 284 444q0 157 -108 260.5t-275 103.5q-175 0 -274.5 -109.5t-99.5 -301.5v-27h-72v16q0 229 120.5 358.5t334.5 129.5q190 0 317 -124.5t127 -309.5q0 -195 -244 -432q-17 -16 -26 -25l-549 -533h768v271h59v-332h-907z" />
<glyph unicode="3" d="M115 442h73v-8q0 -176 106.5 -285.5t274.5 -109.5q175 0 288.5 107.5t113.5 273.5q0 193 -117 295t-338 102q-7 0 -24 -1t-25 -1v65q10 0 22 -0.5t35 -0.5q163 0 252.5 70.5t89.5 197.5q0 121 -80 195.5t-211 74.5q-130 0 -203 -76.5t-85 -226.5h-72q11 176 108.5 273.5 t264.5 97.5q154 0 251 -98.5t97 -256.5q0 -78 -45 -148.5t-135 -131.5q137 -52 214 -163t77 -259q0 -196 -133 -326.5t-334 -130.5q-214 0 -337.5 125.5t-127.5 345.5z" />
<glyph unicode="4" d="M74 266v90l739 1100h92v-1124h176v-66h-176v-207h176v-59h-448v59h205v207h-764zM137 332h701v1050z" />
<glyph unicode="5" d="M86 442h74q9 -175 131.5 -292t294.5 -117q169 0 290 130.5t121 313.5q0 193 -122 313.5t-318 120.5q-118 0 -207 -49t-145 -145l-64 18l140 721h659v-61h-604l-96 -523q78 56 156.5 82.5t164.5 26.5q221 0 365.5 -142.5t144.5 -361.5q0 -215 -139.5 -360.5t-347.5 -145.5 q-205 0 -341 128.5t-157 342.5z" />
<glyph unicode="6" d="M84 451q0 102 41.5 205.5t169.5 287.5l354 512h80l-385 -549q68 29 131.5 43.5t124.5 14.5q203 0 338 -142t135 -356q0 -220 -137.5 -358t-360.5 -138q-211 0 -351 137.5t-140 342.5zM160 467q0 -179 122 -303.5t296 -124.5q184 0 301.5 120.5t117.5 311.5 q0 189 -115.5 309.5t-293.5 120.5q-184 0 -306 -124t-122 -310z" />
<glyph unicode="7" d="M209 1126v330h803v-61l-666 -1395h-78l666 1395h-666v-269h-59z" />
<glyph unicode="8" d="M113 418q0 147 74.5 248t222.5 153q-108 49 -164 126t-56 175q0 159 108.5 262t274.5 103q175 0 284.5 -101.5t109.5 -263.5q0 -99 -56.5 -176.5t-162.5 -124.5q147 -52 221.5 -153t74.5 -248q0 -193 -131 -320t-333 -127q-209 0 -338 123.5t-129 323.5zM182 422 q0 -169 111 -275t287 -106q172 0 283.5 105t111.5 268q0 167 -109 267.5t-288 100.5q-180 0 -288 -98t-108 -262zM262 1128q0 -119 84 -195.5t215 -76.5q161 0 247.5 72.5t86.5 208.5q0 123 -89 201.5t-228 78.5q-140 0 -228 -79.5t-88 -209.5z" />
<glyph unicode="9" d="M84 989q0 221 137 358.5t359 137.5q212 0 352.5 -138t140.5 -341q0 -103 -41.5 -206.5t-169.5 -287.5l-354 -512h-80l383 549q-72 -30 -134 -45t-120 -15q-203 0 -338 142.5t-135 357.5zM160 985q0 -188 115.5 -309t293.5 -121q184 0 305 123t121 309q0 179 -122.5 304.5 t-294.5 125.5q-185 0 -301.5 -120t-116.5 -312z" />
<glyph unicode=":" horiz-adv-x="578" d="M240 0v178h71v-178h-71zM240 922v178h71v-178h-71z" />
<glyph unicode=";" horiz-adv-x="578" d="M152 -147l124 325h72l-125 -325h-71zM254 922v178h72v-178h-72z" />
<glyph unicode="&#x3c;" horiz-adv-x="1706" d="M264 590v41l1178 481v-70l-1069 -432l1069 -432v-69z" />
<glyph unicode="=" horiz-adv-x="1706" d="M254 401v64h1198v-64h-1198zM254 756v63h1198v-63h-1198z" />
<glyph unicode="&#x3e;" horiz-adv-x="1706" d="M264 109v69l1067 432l-1067 432v70l1178 -481v-41z" />
<glyph unicode="?" horiz-adv-x="930" d="M43 1012q6 220 123 346.5t313 126.5q181 0 294.5 -114.5t113.5 -295.5q0 -57 -13.5 -107.5t-42.5 -97.5q-33 -56 -112 -127q-24 -22 -35 -32q-93 -94 -136.5 -186.5t-43.5 -196.5v-9h-72v27q0 98 42 193t128 190q13 14 73 71.5t91 102.5q25 37 37 81t12 101 q0 148 -94 241t-244 93q-165 0 -260 -106.5t-102 -300.5h-72zM432 0v178h72v-178h-72z" />
<glyph unicode="@" horiz-adv-x="2048" d="M127 524q0 161 49.5 304t147.5 262q142 173 343.5 263.5t446.5 90.5q158 0 302 -44t247 -122q127 -98 192.5 -225.5t65.5 -276.5q0 -166 -62 -304t-178 -230q-69 -54 -146.5 -82.5t-156.5 -28.5q-94 0 -141 35.5t-47 105.5q0 7 0.5 16t3.5 29q-47 -87 -124 -137.5 t-165 -50.5q-154 0 -234.5 82.5t-80.5 241.5q0 226 135 384t326 158q98 0 162.5 -44t95.5 -132l61 135h66l-138 -546q-16 -64 -20 -86.5t-4 -34.5q0 -45 32.5 -69.5t92.5 -24.5q70 0 141 33t127 91q81 86 126.5 208t45.5 253q0 270 -203 438t-530 168q-166 0 -309 -47.5 t-258 -140.5q-158 -127 -240 -302t-82 -386q0 -327 222.5 -525t592.5 -198q164 0 328.5 50t302.5 142l23 -34q-144 -107 -305.5 -161t-338.5 -54q-190 0 -344.5 45t-271.5 135q-151 115 -225 268t-74 348zM682 446q0 -120 59 -186.5t164 -66.5q115 0 202 73.5t120 198.5 l65 258q-23 102 -85 155.5t-158 53.5q-156 0 -261.5 -139.5t-105.5 -346.5z" />
<glyph unicode="A" horiz-adv-x="1348" d="M-98 0v63h149l549 1328h-164v65h289l571 -1393h150v-63h-373v63h150l-183 445h-733l-180 -445h145v-63h-370zM336 575h676l-338 822z" />
<glyph unicode="B" horiz-adv-x="1233" d="M76 0v63h198v1328h-198v65h465q233 0 358 -92t125 -262q0 -116 -51 -194t-156 -124q139 -35 213 -133.5t74 -247.5q0 -199 -128.5 -301t-379.5 -102h-520zM344 74h254q220 0 326 81t106 251q0 167 -108 250t-326 83h-252v-665zM344 807h115q275 0 383 68t108 231 q0 142 -103 210t-317 68h-186v-577z" />
<glyph unicode="C" horiz-adv-x="1540" d="M80 737q0 152 57.5 288.5t169.5 248.5q106 106 237.5 158.5t291.5 52.5q149 0 272.5 -51t214.5 -150v172h68v-280h-64q-97 120 -222.5 180.5t-277.5 60.5q-103 0 -196 -28t-174 -84q-137 -95 -217 -248.5t-80 -321.5q0 -143 49 -273t139 -222q98 -101 223.5 -154 t266.5 -53q182 0 319.5 81.5t233.5 245.5h77q-94 -191 -259 -290t-390 -99q-163 0 -302.5 63t-248.5 185q-92 103 -140 235.5t-48 282.5z" />
<glyph unicode="D" horiz-adv-x="1511" d="M86 0v63h199v1328h-199v65h616q161 0 275.5 -34.5t202.5 -108.5q120 -102 187 -255t67 -327q0 -199 -79 -362t-225 -265q-81 -56 -180 -80t-307 -24h-557zM356 63h365q300 0 468.5 179t168.5 495q0 300 -171.5 477t-463.5 177h-367v-1328z" />
<glyph unicode="E" horiz-adv-x="1161" d="M76 0v63h198v1328h-198v65h942v-272h-68v207h-606v-633h608v-64h-608v-631h606v207h68v-270h-942z" />
<glyph unicode="F" horiz-adv-x="1143" d="M76 0v63h198v1328h-198v65h940v-272h-64v207h-608v-633h610v-64h-610v-631h201v-63h-469z" />
<glyph unicode="G" horiz-adv-x="1655" d="M82 737q0 154 57 290t168 247q106 106 238.5 158.5t294.5 52.5q186 0 327 -74.5t254 -232.5v182h66v-270h-86q-113 165 -253.5 246t-316.5 81q-104 0 -196.5 -28t-173.5 -84q-140 -97 -220.5 -249.5t-80.5 -320.5q0 -144 49 -273t139 -222q94 -99 218 -153t253 -54 q253 0 431.5 157t236.5 431h-825v61h905v-682h-68v451q-92 -233 -263 -356.5t-402 -123.5q-129 0 -241 35t-204 105q-149 111 -228 271.5t-79 354.5z" />
<glyph unicode="H" horiz-adv-x="1485" d="M76 0v63h198v1328h-198v65h469v-65h-199v-613h793v613h-201v65h469v-65h-199v-1328h199v-63h-469v63h201v654h-793v-654h199v-63h-469z" />
<glyph unicode="I" horiz-adv-x="627" d="M78 0v63h198v1328h-198v65h469v-65h-199v-1328h199v-63h-469z" />
<glyph unicode="J" horiz-adv-x="1059" d="M53 354h76q12 -151 90 -231t213 -80q170 0 238.5 113.5t68.5 427.5v807h-200v65h469v-65h-197v-885q0 -161 -13 -233t-44 -126q-51 -87 -134.5 -133.5t-191.5 -46.5q-171 0 -273 105t-102 282z" />
<glyph unicode="K" horiz-adv-x="1270" d="M76 0v63h198v1328h-198v65h469v-65h-199v-625l676 625h-199v65h469v-65h-192l-684 -637l690 -691h186v-63h-469v63h191l-668 668v-668h199v-63h-469z" />
<glyph unicode="L" horiz-adv-x="1151" d="M76 0v63h198v1328h-198v65h469v-65h-199v-1328h604v207h68v-270h-942z" />
<glyph unicode="M" horiz-adv-x="1948" d="M76 0v63h198v1328h-198v65h299l600 -1356l598 1356h299v-65h-199v-1328h199v-63h-469v63h199l6 1311l-600 -1374h-68l-600 1374l6 -1311h199v-63h-469z" />
<glyph unicode="N" horiz-adv-x="1602" d="M76 0v63h198v1328h-198v65h289l897 -1358v1293h-199v65h469v-65h-201v-1391h-94l-891 1358v-1295h199v-63h-469z" />
<glyph unicode="O" horiz-adv-x="1651" d="M82 737q0 155 57.5 291.5t167.5 245.5q106 104 236 157.5t278 53.5q153 0 284 -53.5t238 -159.5q112 -110 169 -245.5t57 -289.5q0 -155 -48 -284.5t-145 -235.5q-112 -122 -252.5 -184t-304.5 -62q-163 0 -301.5 63t-249.5 187q-91 102 -138.5 233.5t-47.5 282.5z M156 737q0 -144 48.5 -273t139.5 -224q96 -99 220.5 -153t254.5 -54q136 0 251 45.5t208 136.5q106 105 160.5 238t54.5 288q0 128 -47 246.5t-135 214.5q-104 113 -224.5 167t-267.5 54q-132 0 -249 -49.5t-210 -144.5q-97 -99 -150.5 -228t-53.5 -264z" />
<glyph unicode="P" horiz-adv-x="1198" d="M76 0v63h198v1328h-198v65h497q125 0 195 -12.5t119 -40.5q95 -55 149 -151.5t54 -211.5q0 -201 -136.5 -314.5t-382.5 -113.5h-225v-549h199v-63h-469zM346 684h227q132 0 195.5 16.5t114.5 55.5q65 48 98 119t33 161q0 81 -27.5 148t-79.5 114q-50 47 -126 66.5 t-224 19.5h-211v-700z" />
<glyph unicode="Q" horiz-adv-x="1651" d="M82 737q0 154 57 290t168 247q106 104 236 157.5t278 53.5q153 0 284 -53.5t238 -159.5q115 -113 169.5 -249.5t54.5 -309.5q0 -178 -70 -321.5t-213 -260.5q45 -38 94 -56t113 -18h27v148h67v-215q-18 -1 -50.5 -2.5t-43.5 -1.5q-83 0 -148 24.5t-124 77.5 q-90 -58 -188.5 -87.5t-207.5 -29.5q-127 0 -244.5 41t-216.5 119q-136 109 -208 264.5t-72 341.5zM154 737q0 -64 13 -133.5t40 -144.5q93 50 181 75t173 25q182 0 334 -86t334 -299q125 99 194.5 248t69.5 317q0 130 -46 247t-136 216q-104 113 -224.5 167t-267.5 54 q-130 0 -243.5 -48t-213.5 -146q-99 -100 -153.5 -228.5t-54.5 -263.5zM238 397q90 -175 245 -269.5t351 -94.5q87 0 170 23.5t167 72.5q-177 203 -316 284t-300 81q-80 0 -158.5 -24t-158.5 -73z" />
<glyph unicode="R" horiz-adv-x="1323" d="M76 0v63h198v1328h-198v65h590q141 0 228 -25.5t155 -82.5q75 -66 116 -160t41 -201q0 -199 -125 -317.5t-336 -118.5h-32l348 -488h199v-63h-238l-440 616h170q170 0 276.5 102t106.5 263q0 96 -33 174t-98 139q-53 49 -123 69.5t-197 20.5h-338v-1321h199v-63h-469z " />
<glyph unicode="S" horiz-adv-x="1001" d="M70 4v387h63q6 -171 101 -264.5t262 -93.5t264.5 95.5t97.5 258.5q0 138 -80 219.5t-280 138.5q-21 6 -63 17q-188 49 -259 125q-41 44 -62.5 100.5t-21.5 122.5q0 160 107.5 267.5t267.5 107.5q99 0 174.5 -32.5t132.5 -100.5v104h62v-336h-62q-14 148 -89 226.5 t-204 78.5q-145 0 -233 -86.5t-88 -228.5q0 -73 28 -127.5t88 -95.5q49 -34 187 -68q61 -15 94 -24q193 -57 280 -153t87 -251q0 -190 -119 -305t-318 -115q-119 0 -205 40t-149 124v-131h-63z" />
<glyph unicode="T" horiz-adv-x="1096" d="M76 1184v272h944v-272h-66v207h-372v-1328h200v-63h-469v63h201v1328h-371v-207h-67z" />
<glyph unicode="U" horiz-adv-x="1444" d="M66 1391v65h469v-65h-199v-883q0 -138 14.5 -203t48.5 -112q55 -76 135.5 -113t192.5 -37q96 0 175.5 38.5t133.5 111.5q37 49 52.5 114t15.5 201v883h-199v65h469v-65h-198v-859q0 -157 -19 -238.5t-63 -143.5q-63 -90 -154 -134.5t-211 -44.5q-242 0 -353.5 134.5 t-111.5 426.5v859h-198z" />
<glyph unicode="V" horiz-adv-x="1341" d="M-63 1391v65h436v-65h-195l494 -1291l489 1291h-194v65h436v-65h-166l-532 -1391h-66l-537 1391h-165z" />
<glyph unicode="W" horiz-adv-x="1925" d="M-66 1391v65h451v-65h-188l364 -1272l361 1337h75l361 -1337l366 1272h-190v65h451v-65h-191l-399 -1391h-76l-358 1337l-361 -1337h-76l-399 1391h-191z" />
<glyph unicode="X" horiz-adv-x="1339" d="M-41 0v63h191l473 670l-463 658h-189v65h451v-65h-176l424 -600l424 600h-174v65h450v-65h-190l-463 -658l471 -670h190v-63h-450v63h176l-434 615l-434 -615h174v-63h-451z" />
<glyph unicode="Y" horiz-adv-x="1102" d="M-78 1391v65h418v-65h-190l401 -811l399 811h-190v65h420v-65h-150l-442 -891v-437h198v-63h-471v63h203v437l-448 891h-148z" />
<glyph unicode="Z" horiz-adv-x="1020" d="M90 0v72l762 1312h-676v-200h-59v272h811v-72l-758 -1312h690v198h68v-270h-838z" />
<glyph unicode="[" horiz-adv-x="653" d="M180 168v706q0 229 80 384t234 227v-72q-120 -62 -180 -203t-60 -358v-662q0 -217 60.5 -359t179.5 -204v-69q-154 71 -234 226.5t-80 383.5z" />
<glyph unicode="\" horiz-adv-x="569" d="M-6 1485h76l551 -1675h-76z" />
<glyph unicode="]" horiz-adv-x="653" d="M160 -373q118 62 178.5 204t60.5 359v662q0 217 -60 358t-179 203v72q153 -72 233 -227t80 -384v-706q0 -228 -80 -383.5t-233 -226.5v69z" />
<glyph unicode="^" horiz-adv-x="2048" d="M426 903l547 553h98l549 -553h-109l-487 483l-489 -483h-109z" />
<glyph unicode="_" horiz-adv-x="1024" d="M0 -422h1024v-61h-1024v61z" />
<glyph unicode="`" horiz-adv-x="1024" d="M309 1559h109l209 -326h-64z" />
<glyph unicode="a" horiz-adv-x="1425" d="M80 547q0 119 39.5 220.5t118.5 182.5q77 81 177 123.5t212 42.5q156 0 279.5 -77.5t197.5 -221.5v277h260v-60h-193v-975h193v-59h-260v281q-82 -152 -201.5 -228t-275.5 -76q-112 0 -212 43t-177 123q-79 82 -118.5 183t-39.5 221zM150 547q0 -213 139 -361.5 t338 -148.5q97 0 183 38t155 111q67 73 103 165.5t36 195.5t-36 195.5t-103 164.5q-69 74 -155 112t-183 38q-200 0 -338.5 -148t-138.5 -362z" />
<glyph unicode="b" horiz-adv-x="1415" d="M66 0v59h182v1338h-182v59h249v-639q77 146 199.5 222.5t280.5 76.5q111 0 210 -42.5t177 -123.5t117.5 -182.5t39.5 -220.5q0 -120 -39.5 -221t-117.5 -183q-78 -81 -177 -123.5t-210 -42.5q-157 0 -277.5 76.5t-202.5 227.5v-281h-249zM315 547q0 -103 36 -195.5 t104 -165.5q69 -73 154.5 -111t183.5 -38q198 0 336.5 148.5t138.5 361.5q0 214 -138 362t-337 148q-98 0 -183.5 -38t-154.5 -112q-68 -72 -104 -164.5t-36 -195.5z" />
<glyph unicode="c" horiz-adv-x="1221" d="M76 547q0 116 42 222t120 185q79 81 180.5 123.5t216.5 42.5q130 0 235 -49.5t187 -148.5v172h63v-314h-51q-67 136 -179 208.5t-255 72.5q-99 0 -186.5 -38t-157.5 -112q-70 -72 -107 -166t-37 -198t37 -198t107 -167q71 -74 158.5 -112.5t185.5 -38.5q149 0 269.5 84 t176.5 227h70q-62 -174 -199 -272.5t-317 -98.5q-113 0 -215 43.5t-182 124.5q-78 79 -120 185.5t-42 222.5z" />
<glyph unicode="d" horiz-adv-x="1415" d="M80 547q0 119 39.5 220.5t118.5 182.5q77 81 177 123.5t212 42.5q156 0 279.5 -77.5t197.5 -221.5v580h-201v59h268v-1397h183v-59h-250v281q-82 -152 -201.5 -228t-275.5 -76q-112 0 -212 43t-177 123q-79 82 -118.5 183t-39.5 221zM150 547q0 -213 139 -361.5 t338 -148.5q97 0 183 38t155 111q67 73 103 165.5t36 195.5t-36 195.5t-103 164.5q-69 74 -155 112t-183 38q-200 0 -338.5 -148t-138.5 -362z" />
<glyph unicode="e" horiz-adv-x="1264" d="M76 547q0 116 42 222t120 185q79 81 180.5 123.5t216.5 42.5q233 0 391.5 -160t167.5 -409h-1047q11 -230 147.5 -375t340.5 -145q141 0 256 74t176 206h72q-62 -159 -195.5 -249.5t-308.5 -90.5q-113 0 -215 43.5t-182 124.5q-78 79 -120 185.5t-42 222.5zM152 612h968 q-27 198 -163 323.5t-322 125.5q-187 0 -318.5 -121.5t-164.5 -327.5z" />
<glyph unicode="f" horiz-adv-x="651" d="M76 0v59h198v975h-198v60h198v77q0 143 75 220t231 94v-66q-132 -16 -186 -75.5t-54 -190.5q0 -24 0.5 -36.5t1.5 -22.5h197v-60h-197v-975h197v-59h-463z" />
<glyph unicode="g" horiz-adv-x="1415" d="M80 547q0 119 39.5 220.5t118.5 182.5q77 81 177 123.5t212 42.5q156 0 279.5 -77.5t197.5 -221.5v277h268v-60h-201v-901q0 -133 -34.5 -222t-114.5 -165q-71 -68 -168 -103.5t-211 -35.5q-174 0 -303 81.5t-213 245.5h78q77 -134 185.5 -201t248.5 -67q99 0 187 33.5 t153 95.5q68 64 96.5 141t28.5 207v138q-82 -152 -201.5 -228t-275.5 -76q-112 0 -212 43t-177 123q-79 82 -118.5 183t-39.5 221zM150 547q0 -213 139 -361.5t338 -148.5q97 0 183 38t155 111q67 73 103 165.5t36 195.5t-36 195.5t-103 164.5q-69 74 -155 112t-183 38 q-200 0 -338.5 -148t-138.5 -362z" />
<glyph unicode="h" horiz-adv-x="1368" d="M66 0v59h182v1338h-182v59h249v-551q68 105 160 156t213 51t210.5 -42t154.5 -130q46 -63 66 -142t20 -227v-512h182v-59h-451v59h201v502q0 137 -14.5 207.5t-48.5 124.5q-50 77 -131 118.5t-183 41.5q-104 0 -183.5 -40t-131.5 -118q-34 -52 -49 -117t-15 -217v-502 h201v-59h-450z" />
<glyph unicode="i" horiz-adv-x="567" d="M70 0v59h190v975h-190v60h258v-1035h188v-59h-446zM252 1284v172h76v-172h-76z" />
<glyph unicode="j" horiz-adv-x="522" d="M47 1034v60h279v-1074q0 -120 -9.5 -176t-31.5 -98q-32 -61 -90.5 -95.5t-142.5 -43.5l-1 63q118 21 162.5 89.5t44.5 275.5v999h-211zM252 1284v172h74v-172h-74z" />
<glyph unicode="k" horiz-adv-x="1161" d="M76 0v59h182v1338h-182v59h250v-817l467 395h-175v60h478v-60h-205l-488 -411l574 -564h162v-59h-443v59h189l-559 551v-551h200v-59h-450z" />
<glyph unicode="l" horiz-adv-x="557" d="M59 0v59h191v1338h-191v59h258v-1397h191v-59h-449z" />
<glyph unicode="m" horiz-adv-x="2034" d="M76 0v59h180v975h-180v60h248v-189q52 102 137.5 154.5t197.5 52.5q146 0 241.5 -75t129.5 -216q40 141 135 216t234 75q109 0 191 -42t139 -128q40 -62 57.5 -139t17.5 -232v-512h183v-59h-451v59h201v502q0 251 -82 371.5t-252 120.5q-94 0 -164.5 -40t-116.5 -118 q-31 -53 -44 -118t-13 -216v-502h201v-59h-469v59h200v502q0 250 -82.5 371t-252.5 121q-93 0 -163 -39.5t-116 -118.5q-32 -55 -45.5 -122.5t-13.5 -211.5v-502h202v-59h-450z" />
<glyph unicode="n" horiz-adv-x="1376" d="M76 0v59h182v975h-182v60h250v-189q67 105 159 156t213 51q122 0 211 -42t154 -130q45 -62 64.5 -139t19.5 -230v-512h182v-59h-450v59h200v502q0 143 -14 211.5t-47 120.5q-49 77 -130.5 118.5t-182.5 41.5q-105 0 -184.5 -40t-131.5 -118q-34 -52 -48.5 -117 t-14.5 -217v-502h200v-59h-450z" />
<glyph unicode="o" horiz-adv-x="1268" d="M76 547q0 117 42 222.5t120 184.5q79 81 180.5 123.5t216.5 42.5q114 0 214.5 -42t180.5 -124q79 -80 121.5 -185.5t42.5 -221.5t-42.5 -221.5t-121.5 -186.5q-80 -82 -181 -125t-214 -43t-215 43.5t-182 124.5q-78 80 -120 185.5t-42 222.5zM147 547q0 -103 37 -196.5 t107 -168.5q71 -74 158.5 -112.5t185.5 -38.5q97 0 185 38.5t159 112.5q69 73 106 167t37 198t-37 198t-106 166q-70 74 -157.5 112t-186.5 38t-186.5 -38t-157.5 -112t-107 -167.5t-37 -196.5z" />
<glyph unicode="p" horiz-adv-x="1415" d="M66 -297h182v1331h-182v60h249v-281q82 151 202.5 227t277.5 76q109 0 208.5 -43t178.5 -125t118 -182t39 -219q0 -120 -39.5 -221t-117.5 -183q-78 -81 -177 -123.5t-210 -42.5q-158 0 -280.5 76.5t-199.5 222.5v-573h201v-59h-450v59zM315 547q0 -103 36 -195.5 t104 -165.5q69 -73 154.5 -111t183.5 -38q199 0 337 148t138 362q0 213 -138.5 361.5t-336.5 148.5q-98 0 -183.5 -38t-154.5 -112q-68 -72 -104 -164.5t-36 -195.5z" />
<glyph unicode="q" horiz-adv-x="1415" d="M80 547q0 119 39.5 219t118.5 182q78 82 178 125t211 43q156 0 275.5 -76t201.5 -227v281h250v-60h-183v-1331h183v-59h-451v59h201v573q-76 -146 -198 -222.5t-279 -76.5q-112 0 -212 43t-177 123q-79 82 -118.5 183t-39.5 221zM150 547q0 -214 138.5 -362t338.5 -148 q97 0 183 38t155 111q67 73 103 165.5t36 195.5t-36 195.5t-103 164.5q-69 74 -155 112t-183 38q-199 0 -338 -148.5t-139 -361.5z" />
<glyph unicode="r" horiz-adv-x="856" d="M76 0v59h182v975h-182v60h250v-203q57 112 152 166.5t235 54.5h39v-350h-66v291q-194 -15 -277 -126t-83 -366v-502h200v-59h-450z" />
<glyph unicode="s" horiz-adv-x="883" d="M76 0v340h61q5 -142 85 -223.5t214 -81.5q123 0 203 75t80 189q0 42 -12 76t-35 61q-54 59 -252 104q-42 10 -64 15q-126 31 -189 101.5t-63 181.5q0 125 83.5 204.5t213.5 79.5q88 0 151.5 -29.5t111.5 -93.5v95h63v-267h-57q-11 108 -81.5 172t-178.5 64 q-106 0 -171 -61t-65 -160q0 -55 18.5 -98t53.5 -70q40 -33 175 -64q49 -11 76 -18q163 -44 228.5 -110.5t65.5 -182.5q0 -143 -99 -235.5t-254 -92.5q-100 0 -172 38t-125 118v-127h-65z" />
<glyph unicode="t" horiz-adv-x="616" d="M29 1034v60h229v362h68v-362h241v-60h-241v-975h211v-59h-279v1034h-229z" />
<glyph unicode="u" horiz-adv-x="1358" d="M47 1034v60h250v-572q0 -137 14.5 -207.5t48.5 -124.5q50 -77 130.5 -118t181.5 -41q104 0 183.5 39.5t131.5 117.5q35 54 50.5 121.5t15.5 212.5v512h-201v60h268v-1035h180v-59h-247v178q-68 -105 -160 -156t-213 -51q-123 0 -213 42t-154 128q-45 62 -64.5 140 t-19.5 231v522h-182z" />
<glyph unicode="v" horiz-adv-x="1163" d="M6 1034v60h381v-60h-194l378 -964l379 964h-194v60h381v-60h-117l-410 -1034h-78l-409 1034h-117z" />
<glyph unicode="w" horiz-adv-x="1786" d="M6 1034v60h393v-60h-194l340 -964l305 870h57l305 -870l340 964h-194v60h395v-60h-133l-367 -1034h-82l-292 819l-293 -819h-82l-367 1034h-131z" />
<glyph unicode="x" horiz-adv-x="1124" d="M0 0v59h211l313 486l-319 489h-193v60h469v-60h-200l280 -430l279 430h-199v60h451v-60h-174l-320 -489l315 -486h207v-59h-473v59h191l-279 424l-272 -424h190v-59h-477z" />
<glyph unicode="y" horiz-adv-x="1163" d="M6 1034v60h381v-60h-194l378 -964l379 964h-194v60h381v-60h-117l-522 -1331h192v-59h-463v59h201l109 281l-414 1050h-117z" />
<glyph unicode="z" horiz-adv-x="1049" d="M113 0v72l680 962h-568v-260h-63v320h700v-72l-678 -963h652v263h65v-322h-788z" />
<glyph unicode="{" horiz-adv-x="1024" d="M180 494l1 73q9 -1 19.5 -1.5t30.5 -0.5q140 0 198 65.5t58 225.5v238q0 230 68.5 306.5t255.5 76.5h33v-70h-37q-139 0 -188.5 -53.5t-49.5 -220.5v-242q0 -178 -42 -252.5t-150 -108.5q108 -33 150 -107.5t42 -252.5v-242q0 -167 49.5 -220.5t188.5 -53.5h37v-68h-33 q-187 0 -255.5 76t-68.5 305v238q0 161 -58.5 226t-203.5 65q-7 0 -21.5 -1t-23.5 -1z" />
<glyph unicode="|" horiz-adv-x="1024" d="M475 -483v2048h74v-2048h-74z" />
<glyph unicode="}" horiz-adv-x="1024" d="M182 -344h39q138 0 186 52t48 220v242q0 176 43 251.5t151 108.5q-108 34 -151 109.5t-43 251.5v242q0 169 -48.5 221.5t-187.5 52.5h-37v70h33q186 0 254 -76.5t68 -306.5v-238q0 -160 58 -225.5t200 -65.5q20 0 30.5 0.5t20.5 1.5v-73q-9 0 -23.5 1t-21.5 1 q-146 0 -205 -65.5t-59 -225.5v-238q0 -229 -68 -305t-254 -76h-33v70z" />
<glyph unicode="~" horiz-adv-x="1706" d="M178 489v74q102 74 198.5 111t188.5 37q44 0 92 -9.5t101 -27.5q30 -10 87 -32q197 -73 298 -73q82 0 173.5 38t213.5 122v-72q-105 -73 -201.5 -110t-185.5 -37q-60 0 -121 13t-167 52q-13 5 -38 14q-166 62 -252 62q-81 0 -171 -37t-216 -125z" />
<glyph unicode="&#xa0;" />
<glyph unicode="&#xa1;" horiz-adv-x="578" d="M254 0v1100h72v-1100h-72zM254 1278v178h72v-178h-72z" />
<glyph unicode="&#xa2;" d="M176 723q0 181 113.5 299t302.5 133v182h61v-182q73 -14 136 -44.5t118 -78.5v123h60v-221h-60q-58 78 -137 120t-170 42q-151 0 -255.5 -106t-104.5 -261q0 -157 107.5 -265t262.5 -108q101 0 180 45t117 123h72q-42 -99 -125.5 -156t-216.5 -77v-174h-62v174 q-187 29 -293 143.5t-106 288.5z" />
<glyph unicode="&#xa3;" d="M55 729v64h156q-31 59 -45 112.5t-14 106.5q0 201 134.5 337t340.5 136q129 0 223 -55.5t158 -169.5v157h59v-317h-59q-60 163 -154 242t-227 79q-173 0 -290.5 -114.5t-117.5 -280.5q0 -55 17.5 -112.5t54.5 -120.5h567v-64h-512q88 -89 129 -178.5t41 -190.5 q0 -83 -26.5 -157t-79.5 -142h247q175 0 273 88.5t98 245.5q0 15 -1.5 32.5t-6.5 55.5h74q4 -24 6 -47.5t2 -46.5q0 -95 -37 -175t-104 -132q-57 -44 -128.5 -63t-205.5 -19h-72h-492v61h269q55 77 81.5 149.5t26.5 147.5q0 102 -40 184.5t-144 186.5h-201z" />
<glyph unicode="&#xa4;" horiz-adv-x="1241" d="M94 418l207 205q-45 57 -68.5 123.5t-23.5 138.5q0 71 23.5 137.5t68.5 124.5l-207 205l58 59l206 -207q60 48 125 71t138 23q72 0 138 -23.5t126 -70.5l205 207l59 -59l-207 -205q45 -58 68.5 -124.5t23.5 -137.5q0 -73 -23 -138.5t-69 -123.5l207 -205l-59 -60 l-205 207q-58 -45 -125 -68.5t-139 -23.5q-74 0 -139 23t-124 69l-206 -207zM291 887q0 -138 97 -235t235 -97q137 0 234 97t97 235q0 137 -96.5 233.5t-234.5 96.5t-235 -97t-97 -233z" />
<glyph unicode="&#xa5;" horiz-adv-x="1270" d="M8 1391v65h418v-65h-190l401 -811l399 811h-190v65h420v-65h-150l-205 -410h326v-53h-350l-129 -256h479v-54h-502l-61 -118v-437h196v-63h-469v63h201v437l-61 118h-508v54h483l-131 256h-352v53h327l-204 410h-148z" />
<glyph unicode="&#xa6;" horiz-adv-x="1024" d="M475 -350v758h74v-758h-74zM475 674v758h74v-758h-74z" />
<glyph unicode="&#xa7;" d="M168 756q0 99 73.5 165t186.5 66q18 0 27 -0.5t16 -1.5q-78 99 -105.5 158t-27.5 114q0 98 66 148.5t194 50.5h266v-328h-65v263h-13q-89 4 -124 4q-147 0 -204 -30.5t-57 -104.5q0 -56 30.5 -111t113.5 -143l276 -295q91 -96 128.5 -162.5t37.5 -126.5 q0 -99 -73.5 -165.5t-186.5 -66.5q-18 0 -26.5 0.5t-15.5 1.5q81 -104 107.5 -160t26.5 -110q0 -97 -67 -147.5t-195 -50.5h-262v323h63v-258h13q89 -4 125 -4q146 0 203 30.5t57 104.5q0 56 -29.5 110t-114.5 144l-293 311q-81 87 -116 150t-35 121zM233 760q0 -39 21 -84 t57 -84l209 -227q64 -70 106 -93.5t91 -23.5q83 0 139.5 51t56.5 123q0 40 -20 84.5t-55 83.5l-220 235q-56 60 -98.5 83.5t-91.5 23.5q-82 0 -138.5 -50t-56.5 -122z" />
<glyph unicode="&#xa8;" horiz-adv-x="1024" d="M307 1319v113h92v-113h-92zM623 1319v113h94v-113h-94z" />
<glyph unicode="&#xa9;" horiz-adv-x="1706" d="M125 719q0 144 55.5 277t159.5 239q102 104 232 157.5t280 53.5t281.5 -54t236.5 -159q103 -103 157 -235t54 -279q0 -150 -53.5 -280.5t-155.5 -231.5q-106 -105 -241 -161t-279 -56t-276 55t-236 160q-104 104 -159.5 236.5t-55.5 277.5zM188 719q0 -131 51 -251.5 t146 -215.5q96 -96 216.5 -147.5t250.5 -51.5t252 52t221 149q94 91 143.5 210t49.5 255q0 135 -49.5 255t-143.5 214q-96 95 -216 144.5t-257 49.5q-136 0 -254 -48.5t-211 -143.5q-96 -97 -147.5 -219t-51.5 -252zM475 717q0 210 104.5 333.5t280.5 123.5q128 0 218 -70.5 t104 -181.5h-80q-22 87 -87.5 136.5t-160.5 49.5q-136 0 -213.5 -103.5t-77.5 -287.5q0 -176 79.5 -280.5t211.5 -104.5q101 0 173 57.5t89 151.5h74q-11 -121 -108 -199t-236 -78q-169 0 -270 123t-101 330z" />
<glyph unicode="&#xaa;" horiz-adv-x="1069" d="M59 1073q0 83 30 154t89 129q58 56 133.5 86.5t159.5 30.5q116 0 208.5 -55t147.5 -156v194h197v-41h-145v-684h145v-41h-197v197q-59 -106 -149 -159.5t-207 -53.5q-84 0 -159.5 30t-133.5 87q-59 57 -89 128t-30 154zM113 1073q0 -149 104.5 -252.5t253.5 -103.5 q74 0 138 26.5t114 77.5q51 51 77.5 115.5t26.5 136.5t-26.5 136.5t-77.5 115.5q-50 51 -114 78t-138 27q-150 0 -254 -103.5t-104 -253.5z" />
<glyph unicode="&#xab;" horiz-adv-x="672" d="M129 545l213 391l41 -31l-195 -360l205 -363l-51 -26zM276 545l213 391l41 -31l-194 -360l205 -363l-49 -26z" />
<glyph unicode="&#xac;" horiz-adv-x="1706" d="M254 791v63h1198v-502h-59v439h-1139z" />
<glyph unicode="&#xad;" horiz-adv-x="645" d="M94 500v94h451v-94h-451z" />
<glyph unicode="&#xae;" horiz-adv-x="1706" d="M125 719q0 144 55.5 277t159.5 239q102 104 232 157.5t280 53.5q149 0 281 -54t237 -157q103 -103 157 -235.5t54 -280.5q0 -150 -53 -279.5t-156 -230.5q-107 -106 -241.5 -162.5t-278.5 -56.5t-276 55t-236 160q-104 104 -159.5 236.5t-55.5 277.5zM188 719 q0 -130 51.5 -250.5t147.5 -216.5t216 -147.5t249 -51.5q131 0 254 52t221 149q94 92 142.5 210t48.5 255q0 133 -50 253.5t-145 215.5q-97 96 -216.5 145t-254.5 49q-136 0 -255 -49t-212 -143q-95 -97 -146 -218.5t-51 -252.5zM573 305v850h304q180 0 263 -56.5t83 -178.5 q0 -88 -57 -147.5t-150 -70.5l192 -397h-104l-182 383h-260v-383h-89zM662 760h190q155 0 211.5 36.5t56.5 129.5q0 81 -64 119t-202 38h-192v-323z" />
<glyph unicode="&#xaf;" horiz-adv-x="1024" d="M289 1339v72h446v-72h-446z" />
<glyph unicode="&#xb0;" horiz-adv-x="674" d="M68 1178q0 112 79 191t191 79q110 0 189 -79.5t79 -190.5t-79 -190t-191 -79q-113 0 -190.5 78t-77.5 191zM119 1178q0 -92 64 -156t155 -64t154 64t63 156q0 91 -63.5 155t-153.5 64q-91 0 -155 -64t-64 -155z" />
<glyph unicode="&#xb1;" horiz-adv-x="1706" d="M254 70v63h1198v-63h-1198zM254 731v64h569v356h62v-356h567v-64h-567v-356h-62v356h-569z" />
<glyph unicode="&#xb2;" horiz-adv-x="764" d="M82 582v45l346 309l14 12q189 166 189 266q0 94 -72 157t-182 63q-115 0 -181.5 -66.5t-66.5 -181.5v-17h-47v11q0 137 80 215t221 78q125 0 209 -74.5t84 -186.5q0 -118 -163 -261l-15 -13l-363 -320h508v162h39v-198h-600z" />
<glyph unicode="&#xb3;" horiz-adv-x="764" d="M76 848h49v-6q0 -105 70 -171.5t180 -66.5q116 0 191 64.5t75 165.5q0 115 -77 176t-224 61h-33v39q8 -1 16 -1.5t23 -0.5q107 0 166 42.5t59 119.5q0 73 -52.5 117.5t-139.5 44.5q-86 0 -133.5 -46t-57.5 -137h-47q8 106 72.5 165t173.5 59q103 0 167 -59.5t64 -153.5 q0 -46 -30 -88.5t-88 -79.5q90 -31 140 -98t50 -156q0 -117 -87 -195t-220 -78q-141 0 -222.5 75t-84.5 208z" />
<glyph unicode="&#xb4;" horiz-adv-x="1024" d="M397 1233l209 326h109l-254 -326h-64z" />
<glyph unicode="&#xb5;" horiz-adv-x="1040" d="M-115 -426l316 1483h67l-123 -584q-11 -54 -16.5 -94.5t-5.5 -71.5q0 -131 67 -202.5t189 -71.5q133 0 239 124.5t152 338.5l119 561h69l-192 -887q-3 -15 -4.5 -30.5t-1.5 -28.5q0 -38 19 -55t61 -17q14 0 21.5 0.5t14.5 1.5l-12 -61q-10 -3 -20.5 -4t-30.5 -1 q-60 0 -90.5 28.5t-30.5 84.5q0 12 2.5 30.5t7.5 46.5q-62 -100 -149 -151t-197 -51q-107 0 -180 54t-96 151l-125 -594h-70z" />
<glyph unicode="&#xb6;" horiz-adv-x="1024" d="M98 1130q0 157 108 253t288 96h432v-58h-133v-1421h-58v1421h-196v-1421h-60v782q-175 8 -278 102t-103 246z" />
<glyph unicode="&#xb7;" horiz-adv-x="578" d="M219 729q0 29 20.5 49.5t49.5 20.5t50 -20.5t21 -49.5q0 -30 -20.5 -51t-50.5 -21q-29 0 -49.5 21.5t-20.5 50.5z" />
<glyph unicode="&#xb8;" horiz-adv-x="1024" d="M326 -358q60 -16 116 -23.5t109 -7.5q67 0 104 27.5t37 76.5q0 59 -39.5 87t-122.5 28q-18 0 -28 -0.5t-19 -1.5v172h41v-121h25q101 0 151 -38t50 -115q0 -82 -53 -126t-150 -44q-45 0 -98.5 7t-122.5 23v56z" />
<glyph unicode="&#xb9;" horiz-adv-x="764" d="M154 1415v41h268v-840h123v-34h-307v34h137v799h-221z" />
<glyph unicode="&#xba;" horiz-adv-x="950" d="M57 1073q0 82 31.5 156t89.5 129q60 57 136.5 87t162.5 30q84 0 159.5 -30t135.5 -87q59 -55 91 -128.5t32 -156.5q0 -82 -32 -156t-91 -129q-61 -57 -136.5 -87.5t-158.5 -30.5q-84 0 -161 30.5t-138 87.5q-58 56 -89.5 129.5t-31.5 155.5zM111 1073q0 -72 27.5 -137.5 t80.5 -118.5q53 -51 119 -77.5t139 -26.5t138.5 26.5t119.5 77.5q52 52 79.5 118t27.5 138q0 73 -27.5 139t-79.5 117q-54 52 -119.5 78.5t-138.5 26.5t-139 -27t-119 -78q-53 -53 -80.5 -118.5t-27.5 -137.5z" />
<glyph unicode="&#xbb;" horiz-adv-x="672" d="M129 182l205 363l-195 360l41 31l213 -391l-215 -389zM276 182l205 363l-194 360l41 31l213 -391l-213 -389z" />
<glyph unicode="&#xbc;" horiz-adv-x="1800" d="M145 1419v37h258v-782h115v-33h-293v33h131v745h-211zM387 -29l956 1514h68l-954 -1514h-70zM1118 150v49l465 616h57v-629h113v-36h-113v-117h113v-33h-283v33h129v117h-481zM1157 186h442v588z" />
<glyph unicode="&#xbd;" horiz-adv-x="1800" d="M145 1419v37h258v-782h115v-33h-293v33h131v745h-211zM387 -29l956 1514h68l-954 -1514h-70zM1149 0v43l332 287l13 11q179 156 179 249q0 88 -68 146.5t-173 58.5q-111 0 -174.5 -61.5t-63.5 -168.5v-16h-45v10q0 128 76 200t211 72q120 0 200 -69.5t80 -173.5 q0 -106 -148 -237q-15 -13 -22 -19l-346 -297h483v151h39v-186h-573z" />
<glyph unicode="&#xbe;" horiz-adv-x="1800" d="M72 889h47v-4q0 -99 66.5 -160t172.5 -61q111 0 182.5 59.5t71.5 153.5q0 107 -73.5 164t-212.5 57h-31v36q6 0 13.5 -0.5t21.5 -0.5q102 0 158.5 39.5t56.5 111.5q0 67 -50.5 109.5t-132.5 42.5t-128 -43t-54 -127h-45q8 99 69 153t167 54q96 0 157.5 -56t61.5 -143 q0 -44 -29 -83.5t-86 -74.5q88 -29 136 -90.5t48 -144.5q0 -111 -83.5 -183.5t-210.5 -72.5q-135 0 -212.5 70t-80.5 194zM387 -29l956 1514h68l-954 -1514h-70zM1118 150v49l465 616h57v-629h113v-36h-113v-117h113v-33h-283v33h129v117h-481zM1157 186h442v588z" />
<glyph unicode="&#xbf;" horiz-adv-x="930" d="M68 379q0 60 13 111t40 96q33 55 111 124q25 22 36 33q95 95 139 187.5t44 195.5v9h71v-27q0 -98 -41.5 -191.5t-127.5 -188.5q-14 -15 -74 -72.5t-91 -102.5q-25 -37 -37 -82t-12 -102q0 -148 94 -240t244 -92q165 0 260 106.5t103 300.5h71q-6 -219 -123 -346 t-313 -127q-180 0 -293.5 113.5t-113.5 294.5zM453 1278v178h69v-178h-69z" />
<glyph unicode="&#xc0;" horiz-adv-x="1348" d="M-98 0v63h149l549 1328h-164v65h289l571 -1393h150v-63h-373v63h150l-183 445h-733l-180 -445h145v-63h-370zM336 575h676l-338 822zM471 1926h109l209 -326h-64z" />
<glyph unicode="&#xc1;" horiz-adv-x="1348" d="M-98 0v63h149l549 1328h-164v65h289l571 -1393h150v-63h-373v63h150l-183 445h-733l-180 -445h145v-63h-370zM336 575h676l-338 822zM559 1600l209 326h109l-254 -326h-64z" />
<glyph unicode="&#xc2;" horiz-adv-x="1348" d="M-98 0v63h149l549 1328h-164v65h289l571 -1393h150v-63h-373v63h150l-183 445h-733l-180 -445h145v-63h-370zM336 575h676l-338 822zM420 1600l205 326h98l203 -326h-62l-190 270l-190 -270h-64z" />
<glyph unicode="&#xc3;" horiz-adv-x="1348" d="M-98 0v63h149l549 1328h-164v65h289l571 -1393h150v-63h-373v63h150l-183 445h-733l-180 -445h145v-63h-370zM336 575h676l-338 822zM408 1663q21 73 58.5 107.5t94.5 34.5q12 0 26 -1.5t29 -4.5l115 -29q16 -4 31.5 -6t28.5 -2q32 0 54 16.5t38 52.5h57 q-27 -76 -63 -109.5t-90 -33.5q-15 0 -32 2.5t-35 7.5l-114 29q-12 3 -25 4.5t-26 1.5q-28 0 -49.5 -16.5t-42.5 -53.5h-55z" />
<glyph unicode="&#xc4;" horiz-adv-x="1348" d="M-98 0v63h149l549 1328h-164v65h289l571 -1393h150v-63h-373v63h150l-183 445h-733l-180 -445h145v-63h-370zM336 575h676l-338 822zM469 1686v113h92v-113h-92zM785 1686v113h94v-113h-94z" />
<glyph unicode="&#xc5;" horiz-adv-x="1348" d="M-98 0v63h149l549 1328h-164v65h289l571 -1393h150v-63h-373v63h150l-183 445h-733l-180 -445h145v-63h-370zM336 575h676l-338 822zM426 1747q0 95 65 160t160 65q94 0 158.5 -65t64.5 -160q0 -94 -64.5 -158.5t-158.5 -64.5q-95 0 -160 64.5t-65 158.5zM485 1747 q0 -69 48.5 -116.5t117.5 -47.5t116.5 47.5t47.5 116.5q0 68 -46.5 117t-109.5 49q-72 0 -123 -48.5t-51 -117.5z" />
<glyph unicode="&#xc6;" horiz-adv-x="1896" d="M-180 0v63h198l885 1328h-172v65h1024v-272h-67v207h-609v-633h611v-64h-611v-631h609v207h67v-270h-944v63h201v459h-609l-305 -459h191v-63h-469zM451 592h561v799h-33z" />
<glyph unicode="&#xc7;" horiz-adv-x="1540" d="M80 737q0 152 57.5 288.5t169.5 248.5q106 106 237.5 158.5t291.5 52.5q149 0 272.5 -51t214.5 -150v172h68v-280h-64q-97 120 -222.5 180.5t-277.5 60.5q-103 0 -196 -28t-174 -84q-137 -95 -217 -248.5t-80 -321.5q0 -143 49 -273t139 -222q98 -101 223.5 -154 t266.5 -53q182 0 319.5 81.5t233.5 245.5h77q-94 -191 -259 -290t-390 -99q-163 0 -302.5 63t-248.5 185q-92 103 -140 235.5t-48 282.5zM635 -358q60 -16 116 -23.5t109 -7.5q67 0 104 27.5t37 76.5q0 59 -39.5 87t-122.5 28q-18 0 -28 -0.5t-19 -1.5v172h41v-121h25 q101 0 151 -38t50 -115q0 -82 -53 -126t-150 -44q-45 0 -98.5 7t-122.5 23v56z" />
<glyph unicode="&#xc8;" horiz-adv-x="1161" d="M76 0v63h198v1328h-198v65h942v-272h-68v207h-606v-633h608v-64h-608v-631h606v207h68v-270h-942zM379 1926h109l209 -326h-64z" />
<glyph unicode="&#xc9;" horiz-adv-x="1161" d="M76 0v63h198v1328h-198v65h942v-272h-68v207h-606v-633h608v-64h-608v-631h606v207h68v-270h-942zM467 1600l209 326h109l-254 -326h-64z" />
<glyph unicode="&#xca;" horiz-adv-x="1161" d="M76 0v63h198v1328h-198v65h942v-272h-68v207h-606v-633h608v-64h-608v-631h606v207h68v-270h-942zM328 1600l205 326h98l203 -326h-62l-190 270l-190 -270h-64z" />
<glyph unicode="&#xcb;" horiz-adv-x="1161" d="M76 0v63h198v1328h-198v65h942v-272h-68v207h-606v-633h608v-64h-608v-631h606v207h68v-270h-942zM377 1686v113h92v-113h-92zM693 1686v113h94v-113h-94z" />
<glyph unicode="&#xcc;" horiz-adv-x="627" d="M78 0v63h198v1328h-198v65h469v-65h-199v-1328h199v-63h-469zM110 1926h109l209 -326h-64z" />
<glyph unicode="&#xcd;" horiz-adv-x="627" d="M78 0v63h198v1328h-198v65h469v-65h-199v-1328h199v-63h-469zM198 1600l209 326h109l-254 -326h-64z" />
<glyph unicode="&#xce;" horiz-adv-x="627" d="M78 0v63h198v1328h-198v65h469v-65h-199v-1328h199v-63h-469zM59 1600l205 326h98l203 -326h-62l-190 270l-190 -270h-64z" />
<glyph unicode="&#xcf;" horiz-adv-x="627" d="M78 0v63h198v1328h-198v65h469v-65h-199v-1328h199v-63h-469zM108 1686v113h92v-113h-92zM424 1686v113h94v-113h-94z" />
<glyph unicode="&#xd0;" horiz-adv-x="1518" d="M0 719v55h287v617h-197v65h617q161 0 275 -34.5t202 -108.5q120 -102 187 -255t67 -327q0 -200 -78.5 -362.5t-222.5 -264.5q-82 -56 -181.5 -80t-308.5 -24h-557v63h197v656h-287zM356 63h369q300 0 469.5 179t169.5 495q0 300 -171.5 477t-463.5 177h-373v-617h535v-55 h-535v-656z" />
<glyph unicode="&#xd1;" horiz-adv-x="1602" d="M76 0v63h198v1328h-198v65h289l897 -1358v1293h-199v65h469v-65h-201v-1391h-94l-891 1358v-1295h199v-63h-469zM535 1663q21 73 58.5 107.5t94.5 34.5q12 0 26 -1.5t29 -4.5l115 -29q16 -4 31.5 -6t28.5 -2q32 0 54 16.5t38 52.5h57q-27 -76 -63 -109.5t-90 -33.5 q-15 0 -32 2.5t-35 7.5l-114 29q-12 3 -25 4.5t-26 1.5q-28 0 -49.5 -16.5t-42.5 -53.5h-55z" />
<glyph unicode="&#xd2;" horiz-adv-x="1651" d="M82 737q0 155 57.5 291.5t167.5 245.5q106 104 236 157.5t278 53.5q153 0 284 -53.5t238 -159.5q112 -110 169 -245.5t57 -289.5q0 -155 -48 -284.5t-145 -235.5q-112 -122 -252.5 -184t-304.5 -62q-163 0 -301.5 63t-249.5 187q-91 102 -138.5 233.5t-47.5 282.5z M156 737q0 -144 48.5 -273t139.5 -224q96 -99 220.5 -153t254.5 -54q136 0 251 45.5t208 136.5q106 105 160.5 238t54.5 288q0 128 -47 246.5t-135 214.5q-104 113 -224.5 167t-267.5 54q-132 0 -249 -49.5t-210 -144.5q-97 -99 -150.5 -228t-53.5 -264zM622 1926h109 l209 -326h-64z" />
<glyph unicode="&#xd3;" horiz-adv-x="1651" d="M82 737q0 155 57.5 291.5t167.5 245.5q106 104 236 157.5t278 53.5q153 0 284 -53.5t238 -159.5q112 -110 169 -245.5t57 -289.5q0 -155 -48 -284.5t-145 -235.5q-112 -122 -252.5 -184t-304.5 -62q-163 0 -301.5 63t-249.5 187q-91 102 -138.5 233.5t-47.5 282.5z M156 737q0 -144 48.5 -273t139.5 -224q96 -99 220.5 -153t254.5 -54q136 0 251 45.5t208 136.5q106 105 160.5 238t54.5 288q0 128 -47 246.5t-135 214.5q-104 113 -224.5 167t-267.5 54q-132 0 -249 -49.5t-210 -144.5q-97 -99 -150.5 -228t-53.5 -264zM710 1600l209 326 h109l-254 -326h-64z" />
<glyph unicode="&#xd4;" horiz-adv-x="1651" d="M82 737q0 155 57.5 291.5t167.5 245.5q106 104 236 157.5t278 53.5q153 0 284 -53.5t238 -159.5q112 -110 169 -245.5t57 -289.5q0 -155 -48 -284.5t-145 -235.5q-112 -122 -252.5 -184t-304.5 -62q-163 0 -301.5 63t-249.5 187q-91 102 -138.5 233.5t-47.5 282.5z M156 737q0 -144 48.5 -273t139.5 -224q96 -99 220.5 -153t254.5 -54q136 0 251 45.5t208 136.5q106 105 160.5 238t54.5 288q0 128 -47 246.5t-135 214.5q-104 113 -224.5 167t-267.5 54q-132 0 -249 -49.5t-210 -144.5q-97 -99 -150.5 -228t-53.5 -264zM571 1600l205 326 h98l203 -326h-62l-190 270l-190 -270h-64z" />
<glyph unicode="&#xd5;" horiz-adv-x="1651" d="M82 737q0 155 57.5 291.5t167.5 245.5q106 104 236 157.5t278 53.5q153 0 284 -53.5t238 -159.5q112 -110 169 -245.5t57 -289.5q0 -155 -48 -284.5t-145 -235.5q-112 -122 -252.5 -184t-304.5 -62q-163 0 -301.5 63t-249.5 187q-91 102 -138.5 233.5t-47.5 282.5z M156 737q0 -144 48.5 -273t139.5 -224q96 -99 220.5 -153t254.5 -54q136 0 251 45.5t208 136.5q106 105 160.5 238t54.5 288q0 128 -47 246.5t-135 214.5q-104 113 -224.5 167t-267.5 54q-132 0 -249 -49.5t-210 -144.5q-97 -99 -150.5 -228t-53.5 -264zM559 1663 q21 73 58.5 107.5t94.5 34.5q12 0 26 -1.5t29 -4.5l115 -29q16 -4 31.5 -6t28.5 -2q32 0 54 16.5t38 52.5h57q-27 -76 -63 -109.5t-90 -33.5q-15 0 -32 2.5t-35 7.5l-114 29q-12 3 -25 4.5t-26 1.5q-28 0 -49.5 -16.5t-42.5 -53.5h-55z" />
<glyph unicode="&#xd6;" horiz-adv-x="1651" d="M82 737q0 155 57.5 291.5t167.5 245.5q106 104 236 157.5t278 53.5q153 0 284 -53.5t238 -159.5q112 -110 169 -245.5t57 -289.5q0 -155 -48 -284.5t-145 -235.5q-112 -122 -252.5 -184t-304.5 -62q-163 0 -301.5 63t-249.5 187q-91 102 -138.5 233.5t-47.5 282.5z M156 737q0 -144 48.5 -273t139.5 -224q96 -99 220.5 -153t254.5 -54q136 0 251 45.5t208 136.5q106 105 160.5 238t54.5 288q0 128 -47 246.5t-135 214.5q-104 113 -224.5 167t-267.5 54q-132 0 -249 -49.5t-210 -144.5q-97 -99 -150.5 -228t-53.5 -264zM620 1686v113h92 v-113h-92zM936 1686v113h94v-113h-94z" />
<glyph unicode="&#xd7;" horiz-adv-x="1706" d="M315 119l492 491l-492 492l45 45l492 -492l491 492l46 -45l-492 -492l492 -491l-46 -45l-491 491l-492 -491z" />
<glyph unicode="&#xd8;" horiz-adv-x="1651" d="M80 737q0 153 58 290t169 247q107 105 238 158t284 53q129 0 243 -40t214 -120l170 203l55 -39l-176 -211q115 -104 174.5 -242t59.5 -303q0 -152 -49 -282.5t-144 -233.5q-112 -121 -252.5 -183.5t-302.5 -62.5q-134 0 -249 39.5t-207 116.5l-205 -240l-47 37l204 246 q-118 120 -177.5 262.5t-59.5 304.5zM158 721q0 -139 50 -262.5t152 -235.5l879 1049q-90 76 -193 113.5t-221 37.5q-132 0 -252 -50t-213 -144q-98 -100 -150 -231t-52 -277zM410 180q92 -72 200 -109.5t226 -37.5q126 0 242 48t206 138q100 101 155.5 235.5t55.5 272.5 q0 142 -55 272.5t-154 225.5z" />
<glyph unicode="&#xd9;" horiz-adv-x="1444" d="M66 1391v65h469v-65h-199v-883q0 -138 14.5 -203t48.5 -112q55 -76 135.5 -113t192.5 -37q96 0 175.5 38.5t133.5 111.5q37 49 52.5 114t15.5 201v883h-199v65h469v-65h-198v-859q0 -157 -19 -238.5t-63 -143.5q-63 -90 -154 -134.5t-211 -44.5q-242 0 -353.5 134.5 t-111.5 426.5v859h-198zM520 1926h109l209 -326h-64z" />
<glyph unicode="&#xda;" horiz-adv-x="1444" d="M66 1391v65h469v-65h-199v-883q0 -138 14.5 -203t48.5 -112q55 -76 135.5 -113t192.5 -37q96 0 175.5 38.5t133.5 111.5q37 49 52.5 114t15.5 201v883h-199v65h469v-65h-198v-859q0 -157 -19 -238.5t-63 -143.5q-63 -90 -154 -134.5t-211 -44.5q-242 0 -353.5 134.5 t-111.5 426.5v859h-198zM608 1600l209 326h109l-254 -326h-64z" />
<glyph unicode="&#xdb;" horiz-adv-x="1444" d="M66 1391v65h469v-65h-199v-883q0 -138 14.5 -203t48.5 -112q55 -76 135.5 -113t192.5 -37q96 0 175.5 38.5t133.5 111.5q37 49 52.5 114t15.5 201v883h-199v65h469v-65h-198v-859q0 -157 -19 -238.5t-63 -143.5q-63 -90 -154 -134.5t-211 -44.5q-242 0 -353.5 134.5 t-111.5 426.5v859h-198zM469 1600l205 326h98l203 -326h-62l-190 270l-190 -270h-64z" />
<glyph unicode="&#xdc;" horiz-adv-x="1444" d="M66 1391v65h469v-65h-199v-883q0 -138 14.5 -203t48.5 -112q55 -76 135.5 -113t192.5 -37q96 0 175.5 38.5t133.5 111.5q37 49 52.5 114t15.5 201v883h-199v65h469v-65h-198v-859q0 -157 -19 -238.5t-63 -143.5q-63 -90 -154 -134.5t-211 -44.5q-242 0 -353.5 134.5 t-111.5 426.5v859h-198zM518 1686v113h92v-113h-92zM834 1686v113h94v-113h-94z" />
<glyph unicode="&#xdd;" horiz-adv-x="1102" d="M-78 1391v65h418v-65h-190l401 -811l399 811h-190v65h420v-65h-150l-442 -891v-437h198v-63h-471v63h203v437l-448 891h-148zM436 1600l209 326h109l-254 -326h-64z" />
<glyph unicode="&#xde;" horiz-adv-x="1214" d="M76 0v63h203v1328h-203v65h469v-65h-199v-242h227q125 0 193.5 -12.5t118.5 -40.5q96 -56 150.5 -152.5t54.5 -212.5t-54.5 -213.5t-150.5 -152.5q-48 -28 -115 -40t-197 -12h-227v-250h199v-63h-469zM346 383h211q111 0 179 10t108 31q84 45 129 124.5t45 182.5 t-45 182.5t-129 124.5q-37 21 -103.5 30t-183.5 9h-211v-694z" />
<glyph unicode="&#xdf;" horiz-adv-x="1241" d="M10 0v59h215v920q0 146 15.5 214t50.5 120q55 82 140 127t187 45q164 0 278 -112.5t114 -272.5q0 -119 -64 -211.5t-180 -140.5q161 -28 256.5 -132.5t95.5 -253.5q0 -163 -118 -277t-289 -114q-55 0 -105 12.5t-96 36.5v72q54 -31 102.5 -46t98.5 -15q140 0 238 96 t98 233q0 159 -118 253t-321 94h-41v63h13q157 0 257.5 94t100.5 238q0 134 -94 228.5t-228 94.5q-83 0 -153 -38t-117 -109q-29 -44 -41 -103t-12 -192v-29v-954h-283z" />
<glyph unicode="&#xe0;" horiz-adv-x="1425" d="M80 547q0 119 39.5 220.5t118.5 182.5q77 81 177 123.5t212 42.5q156 0 279.5 -77.5t197.5 -221.5v277h260v-60h-193v-975h193v-59h-260v281q-82 -152 -201.5 -228t-275.5 -76q-112 0 -212 43t-177 123q-79 82 -118.5 183t-39.5 221zM150 547q0 -213 139 -361.5 t338 -148.5q97 0 183 38t155 111q67 73 103 165.5t36 195.5t-36 195.5t-103 164.5q-69 74 -155 112t-183 38q-200 0 -338.5 -148t-138.5 -362zM465 1559h109l209 -326h-64z" />
<glyph unicode="&#xe1;" horiz-adv-x="1425" d="M80 547q0 119 39.5 220.5t118.5 182.5q77 81 177 123.5t212 42.5q156 0 279.5 -77.5t197.5 -221.5v277h260v-60h-193v-975h193v-59h-260v281q-82 -152 -201.5 -228t-275.5 -76q-112 0 -212 43t-177 123q-79 82 -118.5 183t-39.5 221zM150 547q0 -213 139 -361.5 t338 -148.5q97 0 183 38t155 111q67 73 103 165.5t36 195.5t-36 195.5t-103 164.5q-69 74 -155 112t-183 38q-200 0 -338.5 -148t-138.5 -362zM553 1233l209 326h109l-254 -326h-64z" />
<glyph unicode="&#xe2;" horiz-adv-x="1425" d="M80 547q0 119 39.5 220.5t118.5 182.5q77 81 177 123.5t212 42.5q156 0 279.5 -77.5t197.5 -221.5v277h260v-60h-193v-975h193v-59h-260v281q-82 -152 -201.5 -228t-275.5 -76q-112 0 -212 43t-177 123q-79 82 -118.5 183t-39.5 221zM150 547q0 -213 139 -361.5 t338 -148.5q97 0 183 38t155 111q67 73 103 165.5t36 195.5t-36 195.5t-103 164.5q-69 74 -155 112t-183 38q-200 0 -338.5 -148t-138.5 -362zM414 1233l205 326h98l203 -326h-62l-190 270l-190 -270h-64z" />
<glyph unicode="&#xe3;" horiz-adv-x="1425" d="M80 547q0 119 39.5 220.5t118.5 182.5q77 81 177 123.5t212 42.5q156 0 279.5 -77.5t197.5 -221.5v277h260v-60h-193v-975h193v-59h-260v281q-82 -152 -201.5 -228t-275.5 -76q-112 0 -212 43t-177 123q-79 82 -118.5 183t-39.5 221zM150 547q0 -213 139 -361.5 t338 -148.5q97 0 183 38t155 111q67 73 103 165.5t36 195.5t-36 195.5t-103 164.5q-69 74 -155 112t-183 38q-200 0 -338.5 -148t-138.5 -362zM402 1296q21 73 58.5 107.5t94.5 34.5q12 0 26 -1.5t29 -4.5l115 -29q16 -4 31.5 -6t28.5 -2q32 0 54 16.5t38 52.5h57 q-27 -76 -63 -109.5t-90 -33.5q-15 0 -32 2.5t-35 7.5l-114 29q-12 3 -25 4.5t-26 1.5q-28 0 -49.5 -16.5t-42.5 -53.5h-55z" />
<glyph unicode="&#xe4;" horiz-adv-x="1425" d="M80 547q0 119 39.5 220.5t118.5 182.5q77 81 177 123.5t212 42.5q156 0 279.5 -77.5t197.5 -221.5v277h260v-60h-193v-975h193v-59h-260v281q-82 -152 -201.5 -228t-275.5 -76q-112 0 -212 43t-177 123q-79 82 -118.5 183t-39.5 221zM150 547q0 -213 139 -361.5 t338 -148.5q97 0 183 38t155 111q67 73 103 165.5t36 195.5t-36 195.5t-103 164.5q-69 74 -155 112t-183 38q-200 0 -338.5 -148t-138.5 -362zM463 1319v113h92v-113h-92zM779 1319v113h94v-113h-94z" />
<glyph unicode="&#xe5;" horiz-adv-x="1425" d="M80 547q0 119 39.5 220.5t118.5 182.5q77 81 177 123.5t212 42.5q156 0 279.5 -77.5t197.5 -221.5v277h260v-60h-193v-975h193v-59h-260v281q-82 -152 -201.5 -228t-275.5 -76q-112 0 -212 43t-177 123q-79 82 -118.5 183t-39.5 221zM150 547q0 -213 139 -361.5 t338 -148.5q97 0 183 38t155 111q67 73 103 165.5t36 195.5t-36 195.5t-103 164.5q-69 74 -155 112t-183 38q-200 0 -338.5 -148t-138.5 -362zM457 1411q0 96 66.5 162.5t162.5 66.5t161.5 -66t65.5 -163t-65 -162t-162 -65t-163 66t-66 161zM516 1413q0 -71 49.5 -120.5 t120.5 -49.5t119.5 49t48.5 121t-48 120t-120 48t-121 -48.5t-49 -119.5z" />
<glyph unicode="&#xe6;" horiz-adv-x="2288" d="M80 547q0 119 39.5 220.5t118.5 182.5q77 81 177 123.5t212 42.5q174 0 306 -94.5t181 -255.5l-10 328h67l-8 -328q55 163 188.5 258.5t307.5 95.5q234 0 392 -160t167 -409h-1047q11 -229 147 -371.5t341 -142.5q144 0 258 72t174 202h72q-61 -158 -194 -246t-310 -88 t-312 95.5t-184 255.5l8 -328h-75l18 328q-53 -165 -182 -258t-305 -93q-112 0 -212 43t-177 123q-79 82 -118.5 183t-39.5 221zM150 547q0 -214 140 -362t341 -148q98 0 184.5 38t157.5 111q68 72 104.5 164.5t36.5 196.5q0 103 -36.5 196t-104.5 164q-68 73 -156 111.5 t-186 38.5q-201 0 -341 -148t-140 -362zM1176 612h968q-27 198 -163 323.5t-322 125.5q-187 0 -318.5 -121.5t-164.5 -327.5z" />
<glyph unicode="&#xe7;" horiz-adv-x="1221" d="M76 547q0 116 42 222t120 185q79 81 180.5 123.5t216.5 42.5q130 0 235 -49.5t187 -148.5v172h63v-314h-51q-67 136 -179 208.5t-255 72.5q-99 0 -186.5 -38t-157.5 -112q-70 -72 -107 -166t-37 -198t37 -198t107 -167q71 -74 158.5 -112.5t185.5 -38.5q149 0 269.5 84 t176.5 227h70q-62 -174 -199 -272.5t-317 -98.5q-113 0 -215 43.5t-182 124.5q-78 79 -120 185.5t-42 222.5zM451 -358q60 -16 116 -23.5t109 -7.5q67 0 104 27.5t37 76.5q0 59 -39.5 87t-122.5 28q-18 0 -28 -0.5t-19 -1.5v172h41v-121h25q101 0 151 -38t50 -115 q0 -82 -53 -126t-150 -44q-45 0 -98.5 7t-122.5 23v56z" />
<glyph unicode="&#xe8;" horiz-adv-x="1264" d="M76 547q0 116 42 222t120 185q79 81 180.5 123.5t216.5 42.5q233 0 391.5 -160t167.5 -409h-1047q11 -230 147.5 -375t340.5 -145q141 0 256 74t176 206h72q-62 -159 -195.5 -249.5t-308.5 -90.5q-113 0 -215 43.5t-182 124.5q-78 79 -120 185.5t-42 222.5zM152 612h968 q-27 198 -163 323.5t-322 125.5q-187 0 -318.5 -121.5t-164.5 -327.5zM448 1559h109l209 -326h-64z" />
<glyph unicode="&#xe9;" horiz-adv-x="1264" d="M76 547q0 116 42 222t120 185q79 81 180.5 123.5t216.5 42.5q233 0 391.5 -160t167.5 -409h-1047q11 -230 147.5 -375t340.5 -145q141 0 256 74t176 206h72q-62 -159 -195.5 -249.5t-308.5 -90.5q-113 0 -215 43.5t-182 124.5q-78 79 -120 185.5t-42 222.5zM152 612h968 q-27 198 -163 323.5t-322 125.5q-187 0 -318.5 -121.5t-164.5 -327.5zM536 1233l209 326h109l-254 -326h-64z" />
<glyph unicode="&#xea;" horiz-adv-x="1264" d="M76 547q0 116 42 222t120 185q79 81 180.5 123.5t216.5 42.5q233 0 391.5 -160t167.5 -409h-1047q11 -230 147.5 -375t340.5 -145q141 0 256 74t176 206h72q-62 -159 -195.5 -249.5t-308.5 -90.5q-113 0 -215 43.5t-182 124.5q-78 79 -120 185.5t-42 222.5zM152 612h968 q-27 198 -163 323.5t-322 125.5q-187 0 -318.5 -121.5t-164.5 -327.5zM397 1233l205 326h98l203 -326h-62l-190 270l-190 -270h-64z" />
<glyph unicode="&#xeb;" horiz-adv-x="1264" d="M76 547q0 116 42 222t120 185q79 81 180.5 123.5t216.5 42.5q233 0 391.5 -160t167.5 -409h-1047q11 -230 147.5 -375t340.5 -145q141 0 256 74t176 206h72q-62 -159 -195.5 -249.5t-308.5 -90.5q-113 0 -215 43.5t-182 124.5q-78 79 -120 185.5t-42 222.5zM152 612h968 q-27 198 -163 323.5t-322 125.5q-187 0 -318.5 -121.5t-164.5 -327.5zM446 1319v113h92v-113h-92zM762 1319v113h94v-113h-94z" />
<glyph unicode="&#xec;" horiz-adv-x="567" d="M70 0v59h188v975h-188v60h258v-1035h188v-59h-446zM37 1559h109l209 -326h-64z" />
<glyph unicode="&#xed;" horiz-adv-x="567" d="M70 0v59h188v975h-188v60h258v-1035h188v-59h-446zM125 1233l209 326h109l-254 -326h-64z" />
<glyph unicode="&#xee;" horiz-adv-x="567" d="M70 0v59h188v975h-188v60h258v-1035h188v-59h-446zM-14 1233l205 326h98l203 -326h-62l-190 270l-190 -270h-64z" />
<glyph unicode="&#xef;" horiz-adv-x="567" d="M70 0v59h188v975h-188v60h258v-1035h188v-59h-446zM35 1319v113h92v-113h-92zM351 1319v113h94v-113h-94z" />
<glyph unicode="&#xf0;" horiz-adv-x="1233" d="M76 516q0 109 40.5 209t116.5 178q77 78 175 119t208 41q143 0 252 -62.5t179 -183.5l12 2q-49 132 -139 242t-222 199l-350 -132l-26 60l305 117q-54 31 -110.5 60.5t-117.5 57.5l29 60q94 -42 162 -77t125 -71l289 113l26 -62l-258 -94q191 -132 288 -319.5t97 -423.5 q0 -255 -152 -416.5t-389 -161.5q-110 0 -208 41t-175 119q-76 78 -116.5 177t-40.5 208zM143 516q0 -202 137.5 -342.5t335.5 -140.5q199 0 336.5 140.5t137.5 342.5t-138.5 342.5t-335.5 140.5q-196 0 -334.5 -141t-138.5 -342z" />
<glyph unicode="&#xf1;" horiz-adv-x="1376" d="M76 0v59h182v975h-182v60h250v-189q67 105 159 156t213 51q122 0 211 -42t154 -130q45 -62 64.5 -139t19.5 -230v-512h182v-59h-450v59h200v502q0 143 -14 211.5t-47 120.5q-49 77 -130.5 118.5t-182.5 41.5q-105 0 -184.5 -40t-131.5 -118q-34 -52 -48.5 -117 t-14.5 -217v-502h200v-59h-450zM441 1296q21 73 58.5 107.5t94.5 34.5q12 0 26 -1.5t29 -4.5l115 -29q16 -4 31.5 -6t28.5 -2q32 0 54 16.5t38 52.5h57q-27 -76 -63 -109.5t-90 -33.5q-15 0 -32 2.5t-35 7.5l-114 29q-12 3 -25 4.5t-26 1.5q-28 0 -49.5 -16.5t-42.5 -53.5 h-55z" />
<glyph unicode="&#xf2;" horiz-adv-x="1268" d="M76 547q0 117 42 222.5t120 184.5q79 81 180.5 123.5t216.5 42.5q114 0 214.5 -42t180.5 -124q79 -80 121.5 -185.5t42.5 -221.5t-42.5 -221.5t-121.5 -186.5q-80 -82 -181 -125t-214 -43t-215 43.5t-182 124.5q-78 80 -120 185.5t-42 222.5zM147 547q0 -103 37 -196.5 t107 -168.5q71 -74 158.5 -112.5t185.5 -38.5q97 0 185 38.5t159 112.5q69 73 106 167t37 198t-37 198t-106 166q-70 74 -157.5 112t-186.5 38t-186.5 -38t-157.5 -112t-107 -167.5t-37 -196.5zM432 1559h109l209 -326h-64z" />
<glyph unicode="&#xf3;" horiz-adv-x="1268" d="M76 547q0 117 42 222.5t120 184.5q79 81 180.5 123.5t216.5 42.5q114 0 214.5 -42t180.5 -124q79 -80 121.5 -185.5t42.5 -221.5t-42.5 -221.5t-121.5 -186.5q-80 -82 -181 -125t-214 -43t-215 43.5t-182 124.5q-78 80 -120 185.5t-42 222.5zM147 547q0 -103 37 -196.5 t107 -168.5q71 -74 158.5 -112.5t185.5 -38.5q97 0 185 38.5t159 112.5q69 73 106 167t37 198t-37 198t-106 166q-70 74 -157.5 112t-186.5 38t-186.5 -38t-157.5 -112t-107 -167.5t-37 -196.5zM520 1233l209 326h109l-254 -326h-64z" />
<glyph unicode="&#xf4;" horiz-adv-x="1268" d="M76 547q0 117 42 222.5t120 184.5q79 81 180.5 123.5t216.5 42.5q114 0 214.5 -42t180.5 -124q79 -80 121.5 -185.5t42.5 -221.5t-42.5 -221.5t-121.5 -186.5q-80 -82 -181 -125t-214 -43t-215 43.5t-182 124.5q-78 80 -120 185.5t-42 222.5zM147 547q0 -103 37 -196.5 t107 -168.5q71 -74 158.5 -112.5t185.5 -38.5q97 0 185 38.5t159 112.5q69 73 106 167t37 198t-37 198t-106 166q-70 74 -157.5 112t-186.5 38t-186.5 -38t-157.5 -112t-107 -167.5t-37 -196.5zM381 1233l205 326h98l203 -326h-62l-190 270l-190 -270h-64z" />
<glyph unicode="&#xf5;" horiz-adv-x="1268" d="M76 547q0 117 42 222.5t120 184.5q79 81 180.5 123.5t216.5 42.5q114 0 214.5 -42t180.5 -124q79 -80 121.5 -185.5t42.5 -221.5t-42.5 -221.5t-121.5 -186.5q-80 -82 -181 -125t-214 -43t-215 43.5t-182 124.5q-78 80 -120 185.5t-42 222.5zM147 547q0 -103 37 -196.5 t107 -168.5q71 -74 158.5 -112.5t185.5 -38.5q97 0 185 38.5t159 112.5q69 73 106 167t37 198t-37 198t-106 166q-70 74 -157.5 112t-186.5 38t-186.5 -38t-157.5 -112t-107 -167.5t-37 -196.5zM369 1296q21 73 58.5 107.5t94.5 34.5q12 0 26 -1.5t29 -4.5l115 -29 q16 -4 31.5 -6t28.5 -2q32 0 54 16.5t38 52.5h57q-27 -76 -63 -109.5t-90 -33.5q-15 0 -32 2.5t-35 7.5l-114 29q-12 3 -25 4.5t-26 1.5q-28 0 -49.5 -16.5t-42.5 -53.5h-55z" />
<glyph unicode="&#xf6;" horiz-adv-x="1268" d="M76 547q0 117 42 222.5t120 184.5q79 81 180.5 123.5t216.5 42.5q114 0 214.5 -42t180.5 -124q79 -80 121.5 -185.5t42.5 -221.5t-42.5 -221.5t-121.5 -186.5q-80 -82 -181 -125t-214 -43t-215 43.5t-182 124.5q-78 80 -120 185.5t-42 222.5zM147 547q0 -103 37 -196.5 t107 -168.5q71 -74 158.5 -112.5t185.5 -38.5q97 0 185 38.5t159 112.5q69 73 106 167t37 198t-37 198t-106 166q-70 74 -157.5 112t-186.5 38t-186.5 -38t-157.5 -112t-107 -167.5t-37 -196.5zM430 1319v113h92v-113h-92zM746 1319v113h94v-113h-94z" />
<glyph unicode="&#xf7;" horiz-adv-x="1706" d="M254 580v61h1198v-61h-1198zM762 270q0 38 27.5 65t64.5 27q38 0 64 -25.5t26 -64.5q0 -37 -26.5 -64.5t-63.5 -27.5q-38 0 -65 26.5t-27 63.5zM762 948q0 37 27.5 64.5t64.5 27.5t63.5 -27t26.5 -65t-26 -64t-64 -26q-39 0 -65.5 26t-26.5 64z" />
<glyph unicode="&#xf8;" horiz-adv-x="1268" d="M76 547q0 116 41.5 221t120.5 186t180.5 123.5t216.5 42.5q83 0 158 -22t147 -68l117 170l51 -37l-119 -170q102 -93 153.5 -205t51.5 -241q0 -116 -42.5 -221.5t-121.5 -186.5q-80 -82 -181 -125t-214 -43q-82 0 -157 22.5t-146 67.5l-133 -188l-47 33l133 190 q-102 86 -155.5 201t-53.5 250zM147 547q0 -117 44.5 -216.5t132.5 -180.5l577 829q-63 42 -128.5 62t-137.5 20q-99 0 -186.5 -38t-157.5 -112t-107 -167.5t-37 -196.5zM369 115q66 -43 131.5 -63.5t134.5 -20.5q97 0 185 38.5t159 112.5q70 75 106.5 168.5t36.5 196.5 q0 115 -43 213t-129 178z" />
<glyph unicode="&#xf9;" horiz-adv-x="1358" d="M47 1034v60h250v-572q0 -137 14.5 -207.5t48.5 -124.5q50 -77 130.5 -118t181.5 -41q104 0 183.5 39.5t131.5 117.5q35 54 50.5 121.5t15.5 212.5v512h-201v60h268v-1035h180v-59h-247v178q-68 -105 -160 -156t-213 -51q-123 0 -213 42t-154 128q-45 62 -64.5 140 t-19.5 231v522h-182zM444 1559h109l209 -326h-64z" />
<glyph unicode="&#xfa;" horiz-adv-x="1358" d="M47 1034v60h250v-572q0 -137 14.5 -207.5t48.5 -124.5q50 -77 130.5 -118t181.5 -41q104 0 183.5 39.5t131.5 117.5q35 54 50.5 121.5t15.5 212.5v512h-201v60h268v-1035h180v-59h-247v178q-68 -105 -160 -156t-213 -51q-123 0 -213 42t-154 128q-45 62 -64.5 140 t-19.5 231v522h-182zM532 1233l209 326h109l-254 -326h-64z" />
<glyph unicode="&#xfb;" horiz-adv-x="1358" d="M47 1034v60h250v-572q0 -137 14.5 -207.5t48.5 -124.5q50 -77 130.5 -118t181.5 -41q104 0 183.5 39.5t131.5 117.5q35 54 50.5 121.5t15.5 212.5v512h-201v60h268v-1035h180v-59h-247v178q-68 -105 -160 -156t-213 -51q-123 0 -213 42t-154 128q-45 62 -64.5 140 t-19.5 231v522h-182zM393 1233l205 326h98l203 -326h-62l-190 270l-190 -270h-64z" />
<glyph unicode="&#xfc;" horiz-adv-x="1358" d="M47 1034v60h250v-572q0 -137 14.5 -207.5t48.5 -124.5q50 -77 130.5 -118t181.5 -41q104 0 183.5 39.5t131.5 117.5q35 54 50.5 121.5t15.5 212.5v512h-201v60h268v-1035h180v-59h-247v178q-68 -105 -160 -156t-213 -51q-123 0 -213 42t-154 128q-45 62 -64.5 140 t-19.5 231v522h-182zM442 1319v113h92v-113h-92zM758 1319v113h94v-113h-94z" />
<glyph unicode="&#xfd;" horiz-adv-x="1163" d="M6 1034v60h381v-60h-194l378 -964l379 964h-194v60h381v-60h-117l-522 -1331h192v-59h-463v59h201l109 281l-414 1050h-117zM467 1233l209 326h109l-254 -326h-64z" />
<glyph unicode="&#xfe;" horiz-adv-x="1417" d="M66 -297h182v1694h-182v59h249v-643q82 151 202.5 227t277.5 76q109 0 208.5 -43t178.5 -125t118 -182t39 -219q0 -120 -39.5 -221t-117.5 -183q-78 -81 -177 -123.5t-210 -42.5q-159 0 -282 77t-198 222v-573h201v-59h-450v59zM315 547q0 -103 36 -195.5t104 -165.5 q69 -73 154.5 -111t183.5 -38q199 0 337 148t138 362q0 213 -138.5 361.5t-336.5 148.5q-98 0 -183.5 -38t-154.5 -112q-68 -72 -104 -164.5t-36 -195.5z" />
<glyph unicode="&#xff;" horiz-adv-x="1163" d="M6 1034v60h381v-60h-194l378 -964l379 964h-194v60h381v-60h-117l-522 -1331h192v-59h-463v59h201l109 281l-414 1050h-117zM377 1319v113h92v-113h-92zM693 1319v113h94v-113h-94z" />
<glyph unicode="&#x131;" horiz-adv-x="567" d="M70 0v59h188v975h-188v60h258v-1035h188v-59h-446z" />
<glyph unicode="&#x152;" horiz-adv-x="2378" d="M80 737q0 152 57.5 288.5t169.5 248.5q106 105 235 158t277 53q228 0 396.5 -109.5t273.5 -324.5v405h739v-272h-65v207h-604v-633h606v-64h-606v-631h604v207h65v-270h-739v410q-103 -217 -272.5 -328t-397.5 -111q-163 0 -301.5 63t-249.5 187q-93 104 -140.5 234.5 t-47.5 281.5zM156 735q0 -143 49.5 -273t138.5 -224q94 -99 218 -153t255 -54q135 0 250.5 46.5t206.5 137.5q106 106 160.5 238.5t54.5 283.5q0 128 -46.5 245t-135.5 214q-104 113 -224 167t-266 54q-130 0 -247 -49.5t-210 -142.5q-97 -101 -150.5 -229t-53.5 -261z" />
<glyph unicode="&#x153;" horiz-adv-x="2304" d="M76 547q0 116 42 222t120 185q79 81 180.5 123.5t216.5 42.5q183 0 323 -103t199 -282q60 180 198 282.5t320 102.5q234 0 392 -159.5t167 -409.5h-1046q10 -230 147 -375t340 -145q142 0 256.5 74t175.5 206h72q-61 -159 -195 -249.5t-309 -90.5q-185 0 -326 103.5 t-194 279.5q-56 -176 -196.5 -279.5t-323.5 -103.5q-113 0 -215 43.5t-182 124.5q-78 79 -120 185.5t-42 222.5zM147 547q0 -103 37 -196.5t107 -168.5q71 -74 158.5 -112.5t185.5 -38.5q97 0 185 38.5t159 112.5q69 73 106 167t37 198t-37 198t-106 166q-70 74 -157.5 112 t-186.5 38t-186.5 -38t-157.5 -112t-107 -167.5t-37 -196.5zM1192 612h969q-27 198 -163.5 323.5t-322.5 125.5q-187 0 -320 -123t-163 -326z" />
<glyph unicode="&#x178;" horiz-adv-x="1102" d="M-78 1391v65h418v-65h-190l401 -811l399 811h-190v65h420v-65h-150l-442 -891v-437h198v-63h-471v63h203v437l-448 891h-148zM346 1686v113h92v-113h-92zM662 1686v113h94v-113h-94z" />
<glyph unicode="&#x2c6;" horiz-adv-x="1024" d="M258 1233l205 326h98l203 -326h-62l-190 270l-190 -270h-64z" />
<glyph unicode="&#x2dc;" horiz-adv-x="1024" d="M246 1296q21 73 58.5 107.5t94.5 34.5q12 0 26 -1.5t29 -4.5l115 -29q16 -4 31.5 -6t28.5 -2q32 0 54 16.5t38 52.5h57q-27 -76 -63 -109.5t-90 -33.5q-15 0 -32 2.5t-35 7.5l-114 29q-12 3 -25 4.5t-26 1.5q-28 0 -49.5 -16.5t-42.5 -53.5h-55z" />
<glyph unicode="&#x2000;" horiz-adv-x="986" />
<glyph unicode="&#x2001;" horiz-adv-x="1972" />
<glyph unicode="&#x2002;" horiz-adv-x="986" />
<glyph unicode="&#x2003;" horiz-adv-x="1972" />
<glyph unicode="&#x2004;" horiz-adv-x="657" />
<glyph unicode="&#x2005;" horiz-adv-x="493" />
<glyph unicode="&#x2006;" horiz-adv-x="328" />
<glyph unicode="&#x2007;" horiz-adv-x="328" />
<glyph unicode="&#x2008;" horiz-adv-x="246" />
<glyph unicode="&#x2009;" horiz-adv-x="394" />
<glyph unicode="&#x200a;" horiz-adv-x="109" />
<glyph unicode="&#x2010;" horiz-adv-x="645" d="M94 500v94h451v-94h-451z" />
<glyph unicode="&#x2011;" horiz-adv-x="645" d="M94 500v94h451v-94h-451z" />
<glyph unicode="&#x2012;" horiz-adv-x="645" d="M94 500v94h451v-94h-451z" />
<glyph unicode="&#x2013;" horiz-adv-x="1024" d="M0 508v76h1024v-76h-1024z" />
<glyph unicode="&#x2014;" horiz-adv-x="2048" d="M0 508v76h2048v-76h-2048z" />
<glyph unicode="&#x2018;" horiz-adv-x="332" d="M68 1456h71l125 -326h-71z" />
<glyph unicode="&#x2019;" horiz-adv-x="332" d="M68 1130l125 326h71l-125 -326h-71z" />
<glyph unicode="&#x201a;" horiz-adv-x="332" d="M68 -147l125 325h71l-125 -325h-71z" />
<glyph unicode="&#x201c;" horiz-adv-x="573" d="M68 1456h71l125 -326h-71zM309 1456h72l125 -326h-72z" />
<glyph unicode="&#x201d;" horiz-adv-x="573" d="M68 1130l125 326h71l-125 -326h-71zM309 1130l125 326h72l-125 -326h-72z" />
<glyph unicode="&#x201e;" horiz-adv-x="573" d="M68 -147l125 325h71l-125 -325h-71zM309 -147l125 325h72l-125 -325h-72z" />
<glyph unicode="&#x2022;" horiz-adv-x="1208" d="M307 762q0 123 87 209t210 86q122 0 208.5 -86.5t86.5 -208.5t-87.5 -209.5t-209.5 -87.5q-123 0 -209 87t-86 210z" />
<glyph unicode="&#x2026;" horiz-adv-x="2048" d="M307 0v178h72v-178h-72zM989 0v178h72v-178h-72zM1673 0v178h72v-178h-72z" />
<glyph unicode="&#x202f;" horiz-adv-x="394" />
<glyph unicode="&#x2039;" horiz-adv-x="446" d="M90 545l213 391l43 -31l-196 -360l204 -363l-49 -26z" />
<glyph unicode="&#x203a;" horiz-adv-x="446" d="M90 182l205 363l-195 360l41 31l213 -391l-213 -389z" />
<glyph unicode="&#x205f;" horiz-adv-x="493" />
<glyph unicode="&#x2122;" horiz-adv-x="1706" d="M285 1411v41h409v-41h-174v-485h-57v485h-178zM827 926v526h88l181 -455l168 455h86v-526h-47v489l-185 -489h-45l-196 489v-489h-50z" />
<glyph unicode="&#xe000;" horiz-adv-x="1095" d="M0 1095h1095v-1095h-1095v1095z" />
<glyph unicode="&#xfb01;" horiz-adv-x="1218" d="M721 0v59h190v975h-190v60h258v-1035h188v-59h-446zM903 1284v172h76v-172h-76zM76 0v59h198v975h-198v60h198v77q0 143 75 220t231 94v-66q-132 -16 -186 -75.5t-54 -190.5q0 -24 0.5 -36.5t1.5 -22.5h197v-60h-197v-975h197v-59h-463z" />
<glyph unicode="&#xfb02;" horiz-adv-x="1208" d="M710 0v59h191v1338h-191v59h258v-1397h191v-59h-449zM76 0v59h198v975h-198v60h198v77q0 143 75 220t231 94v-66q-132 -16 -186 -75.5t-54 -190.5q0 -24 0.5 -36.5t1.5 -22.5h197v-60h-197v-975h197v-59h-463z" />
<glyph unicode="&#xfb03;" horiz-adv-x="1869" d="M1372 0v59h190v975h-190v60h258v-1035h188v-59h-446zM1554 1284v172h76v-172h-76zM727 0v59h198v975h-198v60h198v77q0 143 75 220t231 94v-66q-132 -16 -186 -75.5t-54 -190.5q0 -24 0.5 -36.5t1.5 -22.5h197v-60h-197v-975h197v-59h-463zM76 0v59h198v975h-198v60h198 v77q0 143 75 220t231 94v-66q-132 -16 -186 -75.5t-54 -190.5q0 -24 0.5 -36.5t1.5 -22.5h197v-60h-197v-975h197v-59h-463z" />
<glyph unicode="&#xfb04;" horiz-adv-x="1859" d="M1361 0v59h191v1338h-191v59h258v-1397h191v-59h-449zM727 0v59h198v975h-198v60h198v77q0 143 75 220t231 94v-66q-132 -16 -186 -75.5t-54 -190.5q0 -24 0.5 -36.5t1.5 -22.5h197v-60h-197v-975h197v-59h-463zM76 0v59h198v975h-198v60h198v77q0 143 75 220t231 94v-66 q-132 -16 -186 -75.5t-54 -190.5q0 -24 0.5 -36.5t1.5 -22.5h197v-60h-197v-975h197v-59h-463z" />
</font>
</defs>
</svg>
